<svg height="16" viewBox="0 0 16 16" width="16" xmlns="http://www.w3.org/2000/svg"><path d="m8 6.5562501c.400125 0 .743625.1376249 1.03125.4125.287625.2876249.43125.6311248.43125 1.0312499 0 .400125-.143625.743625-.43125 1.03125s-.631125.43125-1.03125.43125c-.4001251 0-.743625-.143625-1.0312501-.43125-.2748749-.287625-.4124998-.631125-.4124998-1.03125 0-.4001251.1376249-.743625.4124998-1.0312499.2876251-.2748751.631125-.4125 1.0312501-.4125m0-1.4625c-.799875 0-1.4876249.28125-2.0624999.84375-.5625.574875-.84375 1.2626249-.84375 2.0624999s.28125 1.487625.84375 2.0625c.574875.5625 1.2626249.84375 2.0624999.84375s1.487625-.28125 2.0625-.84375c.5625-.574875.84375-1.262625.84375-2.0625s-.28125-1.4876249-.84375-2.0624999c-.574875-.5625-1.262625-.84375-2.0625-.84375m5.55.58125c.3.7125.45 1.487625.45 2.3249999 0 .124875-.04387.231375-.13125.31875-.087375.087375-.193875.13125-.31875.13125h-1.2375l-.15.76875 1.1625.4875.24375.24375c.04988.1125.04988.225 0 .3375-.287625.7125-.73125 1.36875-1.33125 1.96875l-.3.1125-.31875-.1125-.88125-.88125-.65625.45.4875 1.14375c.04988.1125.04988.225 0 .3375l-.24375.24375c-.7125.3-1.487625.45-2.325.45-.124875 0-.2313751-.043875-.3187502-.13125-.0873748-.087375-.1312498-.193875-.1312498-.31875v-1.2375l-.7687499-.13125-.4687501 1.14375-.2437502.24375c-.1125.04988-.225.04988-.3375 0-.7248749-.287625-1.3811248-.724875-1.9687498-1.3125-.087375-.087375-.13125-.193875-.13125-.31875s.043875-.231375.13125-.31875l.88125-.88125-.45-.65625-1.1625.4875c-.1125.04988-.225.04988-.3375 0l-.24375-.24375c-.3-.7125-.45-1.487625-.45-2.325 0-.124875.043875-.2313751.13125-.3187499.087375-.0873751.193875-.1312501.31875-.1312501h1.2375l.15-.7687499-1.1625-.4687501-.24375-.2437498c-.049875-.1125001-.049875-.2250001 0-.3375001.287625-.7248752.73125-1.3811252 1.33125-1.9687501.087375-.087375.1875-.13125.3-.13125.124875 0 .231375.043875.31875.13125l.8812501.8812499c.212625-.175125.4312499-.325125.6562499-.4499999l-.4874999-1.1625c-.049875-.1125-.049875-.225 0-.3375s.1312497-.193875.2437497-.24375c.7125003-.3 1.4876253-.45 2.3250002-.45.124875 0 .231375.043875.31875.13125s.13125.193875.13125.31875v1.2375l.76875.15.4875-1.1625c.0375-.1125.1125-.193875.225-.24375s.231375-.049875.35625 0c.462375.1875.906375.443625 1.33125.76875l.61875.5625c.08737.087375.13125.193875.13125.31875l-.13125.3000001-.8625.88125.43125.6562499 1.1625-.4874999c.1125-.049875.225-.049875.3375 0z" fill="#e0e0e0" stroke-width=".374999"/></svg>