<svg height="16" viewBox="0 0 16 16" width="16" xmlns="http://www.w3.org/2000/svg"><path d="m3.7625001 3.74375c1.174875-1.1625 2.5874998-1.74375 4.2374998-1.74375 1.6500001 0 3.0626251.587625 4.2375001 1.7625s1.7625 2.5875001 1.7625 4.2374998c0 1.6623752-.587625 3.0813752-1.7625 4.2562502-1.174875 1.1625-2.5875 1.74375-4.2375001 1.74375-1.65 0-3.0626248-.58125-4.2374998-1.74375-1.1748751-1.174875-1.7625001-2.593875-1.7625001-4.2562502 0-1.6499997.58125-3.0626248 1.7437501-4.2374998h.01875zm4.2374998 2.1375c.5876251 0 1.0875001.2062499 1.5000001.61875s.61875.9123751.61875 1.4999998c0 .5876252-.20625 1.0875002-.61875 1.5000002-.4125.424875-.912375.6375-1.5000001.6375-.6 0-1.10625-.212625-1.51875-.6375-.400125-.4125-.6-.912375-.6-1.5000002 0-.5876247.199875-1.0874997.6-1.4999998.4125-.4125001.91875-.61875 1.51875-.61875m0-1.63125c-1.037625 0-1.924875.3626248-2.6625 1.0875001-.7376248.7376248-1.1062498 1.6248749-1.1062498 2.6624997 0 1.0500002.368625 1.9376252 1.1062498 2.6625002.737625.737625 1.624875 1.10625 2.6625 1.10625 1.0376251 0 1.9248751-.368625 2.6625001-1.10625h.01875c.724875-.724875 1.0875-1.6125 1.0875-2.6625002 0-1.0376248-.362625-1.9248749-1.0875-2.6624997-.75-.7248753-1.643625-1.0875001-2.6812501-1.0875001" fill="#e0e0e0" stroke-width=".375"/></svg>